<svg xmlns="http://www.w3.org/2000/svg" xmlns:xlink="http://www.w3.org/1999/xlink" contentStyleType="text/css" data-diagram-type="SEQUENCE" height="1198px" preserveAspectRatio="none" style="width:838px;height:1198px;background:#FFFFFF;" version="1.1" viewBox="0 0 838 1198" width="838px" zoomAndPan="magnify"><title>FAPI2 Flow for Singpass Login</title><defs/><g><text fill="#000000" font-family="sans-serif" font-size="14" font-weight="bold" lengthAdjust="spacing" textLength="238.9639" x="301.4141" y="27.9951">FAPI2 Flow for Singpass Login</text><rect fill="none" height="160.7969" style="stroke:#000000;stroke-width:1.5;" width="422.6138" x="309.771" y="265.6563"/><rect fill="none" height="61.3984" style="stroke:#000000;stroke-width:1.5;" width="333.7524" x="93" y="520.9844"/><rect fill="none" height="252.4609" style="stroke:#000000;stroke-width:1.5;" width="749.792" x="83" y="646.6484"/><rect fill="none" height="61.3984" style="stroke:#000000;stroke-width:1.5;" width="639.3848" x="93" y="670.7813"/><g><title>RP Mobile App</title><rect fill="#000000" fill-opacity="0.00000" height="1089.8438" width="8" x="156.1724" y="73.5938"/><line style="stroke:#181818;stroke-width:0.5;stroke-dasharray:5,5;" x1="160" x2="160" y1="73.5938" y2="1163.4375"/></g><g><title>RP Backend</title><rect fill="#000000" fill-opacity="0.00000" height="1089.8438" width="8" x="364.2617" y="73.5938"/><line style="stroke:#181818;stroke-width:0.5;stroke-dasharray:5,5;" x1="367.771" x2="367.771" y1="73.5938" y2="1163.4375"/></g><g><title>Singpass OAuth Server</title><rect fill="#000000" fill-opacity="0.00000" height="1089.8438" width="8" x="630.7686" y="73.5938"/><line style="stroke:#181818;stroke-width:0.5;stroke-dasharray:5,5;" x1="634.1523" x2="634.1523" y1="73.5938" y2="1163.4375"/></g><g class="participant participant-head" data-participant="Mobile"><rect fill="#E2E2F0" height="30.2969" rx="2.5" ry="2.5" style="stroke:#181818;stroke-width:0.5;" width="114.3447" x="103" y="42.2969"/><text fill="#000000" font-family="sans-serif" font-size="14" lengthAdjust="spacing" textLength="100.3447" x="110" y="62.292">RP Mobile App</text></g><g class="participant participant-tail" data-participant="Mobile"><rect fill="#E2E2F0" height="30.2969" rx="2.5" ry="2.5" style="stroke:#181818;stroke-width:0.5;" width="114.3447" x="103" y="1162.4375"/><text fill="#000000" font-family="sans-serif" font-size="14" lengthAdjust="spacing" textLength="100.3447" x="110" y="1182.4326">RP Mobile App</text></g><g class="participant participant-head" data-participant="Backend"><rect fill="#E2E2F0" height="30.2969" rx="2.5" ry="2.5" style="stroke:#181818;stroke-width:0.5;" width="96.9814" x="319.771" y="42.2969"/><text fill="#000000" font-family="sans-serif" font-size="14" lengthAdjust="spacing" textLength="82.9814" x="326.771" y="62.292">RP Backend</text></g><g class="participant participant-tail" data-participant="Backend"><rect fill="#E2E2F0" height="30.2969" rx="2.5" ry="2.5" style="stroke:#181818;stroke-width:0.5;" width="96.9814" x="319.771" y="1162.4375"/><text fill="#000000" font-family="sans-serif" font-size="14" lengthAdjust="spacing" textLength="82.9814" x="326.771" y="1182.4326">RP Backend</text></g><g class="participant participant-head" data-participant="Singpass"><rect fill="#E2E2F0" height="30.2969" rx="2.5" ry="2.5" style="stroke:#181818;stroke-width:0.5;" width="175.2324" x="547.1523" y="42.2969"/><text fill="#000000" font-family="sans-serif" font-size="14" lengthAdjust="spacing" textLength="161.2324" x="554.1523" y="62.292">Singpass OAuth Server</text></g><g class="participant participant-tail" data-participant="Singpass"><rect fill="#E2E2F0" height="30.2969" rx="2.5" ry="2.5" style="stroke:#181818;stroke-width:0.5;" width="175.2324" x="547.1523" y="1162.4375"/><text fill="#000000" font-family="sans-serif" font-size="14" lengthAdjust="spacing" textLength="161.2324" x="554.1523" y="1182.4326">Singpass OAuth Server</text></g><path d="M5,88.5938 L5,128.5938 L155,128.5938 L155,98.5938 L145,88.5938 L5,88.5938" fill="#FEFFDD" style="stroke:#181818;stroke-width:0.5;"/><path d="M145,88.5938 L145,98.5938 L155,98.5938 L145,88.5938" fill="#FEFFDD" style="stroke:#181818;stroke-width:0.5;"/><text fill="#000000" font-family="sans-serif" font-size="13" lengthAdjust="spacing" textLength="89.9082" x="11" y="105.6606">User clicks on</text><text fill="#000000" font-family="sans-serif" font-size="13" lengthAdjust="spacing" textLength="129.2637" x="11" y="120.7935">Login with Singpass</text><g class="message" data-participant-1="Mobile" data-participant-2="Backend"><polygon fill="#181818" points="356.2617,166.125,366.2617,170.125,356.2617,174.125,360.2617,170.125" style="stroke:#181818;stroke-width:1;"/><line style="stroke:#181818;stroke-width:1;" x1="160.1724" x2="362.2617" y1="170.125" y2="170.125"/><text fill="#000000" font-family="sans-serif" font-size="13" font-weight="bold" lengthAdjust="spacing" textLength="23.0293" x="167.1724" y="157.4927">1.1</text><text fill="#000000" font-family="sans-serif" font-size="13" lengthAdjust="spacing" textLength="157.0601" x="194.2017" y="149.9263">Request for request_uri,</text><text fill="#000000" font-family="sans-serif" font-size="13" lengthAdjust="spacing" textLength="105.2314" x="194.2017" y="165.0591">state and nonce</text></g><path d="M373,183.125 L373,253.125 L555,253.125 L555,193.125 L545,183.125 L373,183.125" fill="#FEFFDD" style="stroke:#181818;stroke-width:0.5;"/><path d="M545,183.125 L545,193.125 L555,193.125 L545,183.125" fill="#FEFFDD" style="stroke:#181818;stroke-width:0.5;"/><text fill="#000000" font-family="sans-serif" font-size="13" lengthAdjust="spacing" textLength="153.0103" x="379" y="200.1919">Generate code_verifier,</text><text fill="#000000" font-family="sans-serif" font-size="13" lengthAdjust="spacing" textLength="105.0474" x="379" y="215.3247">code_challenge,</text><text fill="#000000" font-family="sans-serif" font-size="13" lengthAdjust="spacing" textLength="161.751" x="379" y="230.4575">code_challenge_method,</text><text fill="#000000" font-family="sans-serif" font-size="13" lengthAdjust="spacing" textLength="105.2314" x="379" y="245.5903">state and nonce</text><path d="M309.771,265.6563 L458.8789,265.6563 L458.8789,272.7891 L448.8789,282.7891 L309.771,282.7891 L309.771,265.6563" fill="#EEEEEE" style="stroke:#000000;stroke-width:1.5;"/><rect fill="none" height="160.7969" style="stroke:#000000;stroke-width:1.5;" width="422.6138" x="309.771" y="265.6563"/><text fill="#000000" font-family="sans-serif" font-size="13" font-weight="bold" lengthAdjust="spacing" textLength="104.1079" x="324.771" y="278.7231">New for FAPI2</text><path d="M373,287.7891 L373,327.7891 L622,327.7891 L622,297.7891 L612,287.7891 L373,287.7891" fill="#FEFFDD" style="stroke:#181818;stroke-width:0.5;"/><path d="M612,287.7891 L612,297.7891 L622,297.7891 L612,287.7891" fill="#FEFFDD" style="stroke:#181818;stroke-width:0.5;"/><text fill="#000000" font-family="sans-serif" font-size="13" lengthAdjust="spacing" textLength="224.2881" x="379" y="304.856">Generate ephemeral dpop keypair</text><text fill="#000000" font-family="sans-serif" font-size="13" lengthAdjust="spacing" textLength="228.0776" x="379" y="319.9888">&amp; dpop token for PAR endpoint call</text><g class="message" data-participant-1="Backend" data-participant-2="Singpass"><polygon fill="#181818" points="622.7686,350.1875,632.7686,354.1875,622.7686,358.1875,626.7686,354.1875" style="stroke:#181818;stroke-width:1;"/><line style="stroke:#181818;stroke-width:1;" x1="368.2617" x2="628.7686" y1="354.1875" y2="354.1875"/><text fill="#000000" font-family="sans-serif" font-size="13" font-weight="bold" lengthAdjust="spacing" textLength="23.0293" x="375.2617" y="349.1216">1.2</text><text fill="#000000" font-family="sans-serif" font-size="13" lengthAdjust="spacing" textLength="215.4775" x="402.291" y="349.1216">Call PAR endpoint for request_uri</text></g><g class="message" data-participant-1="Singpass" data-participant-2="Backend"><polygon fill="#181818" points="379.2617,379.3203,369.2617,383.3203,379.2617,387.3203,375.2617,383.3203" style="stroke:#181818;stroke-width:1;"/><line style="stroke:#181818;stroke-width:1;" x1="373.2617" x2="633.7686" y1="383.3203" y2="383.3203"/><text fill="#000000" font-family="sans-serif" font-size="13" font-weight="bold" lengthAdjust="spacing" textLength="23.0293" x="385.2617" y="378.2544">1.3</text><text fill="#000000" font-family="sans-serif" font-size="13" lengthAdjust="spacing" textLength="205.9053" x="412.291" y="378.2544">Return request_uri &amp; expires_in</text></g><path d="M373,396.3203 L373,421.3203 L625,421.3203 L625,406.3203 L615,396.3203 L373,396.3203" fill="#FEFFDD" style="stroke:#181818;stroke-width:0.5;"/><path d="M615,396.3203 L615,406.3203 L625,406.3203 L615,396.3203" fill="#FEFFDD" style="stroke:#181818;stroke-width:0.5;"/><text fill="#000000" font-family="sans-serif" font-size="13" lengthAdjust="spacing" textLength="231.8228" x="379" y="413.3872">save ephemeral dpop keypair to db</text><path d="M373,438.4531 L373,508.4531 L555,508.4531 L555,448.4531 L545,438.4531 L373,438.4531" fill="#FEFFDD" style="stroke:#181818;stroke-width:0.5;"/><path d="M545,438.4531 L545,448.4531 L555,448.4531 L545,438.4531" fill="#FEFFDD" style="stroke:#181818;stroke-width:0.5;"/><text fill="#000000" font-family="sans-serif" font-size="13" lengthAdjust="spacing" textLength="124.2046" x="379" y="455.52">Save code_verifier,</text><text fill="#000000" font-family="sans-serif" font-size="13" lengthAdjust="spacing" textLength="105.0474" x="379" y="470.6528">code_challenge,</text><text fill="#000000" font-family="sans-serif" font-size="13" lengthAdjust="spacing" textLength="161.751" x="379" y="485.7856">code_challenge_method,</text><text fill="#000000" font-family="sans-serif" font-size="13" lengthAdjust="spacing" textLength="143.0508" x="379" y="500.9185">state and nonce to db</text><path d="M93,520.9844 L276.4741,520.9844 L276.4741,528.1172 L266.4741,538.1172 L93,538.1172 L93,520.9844" fill="#EEEEEE" style="stroke:#000000;stroke-width:1.5;"/><rect fill="none" height="61.3984" style="stroke:#000000;stroke-width:1.5;" width="333.7524" x="93" y="520.9844"/><text fill="#000000" font-family="sans-serif" font-size="13" font-weight="bold" lengthAdjust="spacing" textLength="138.4741" x="108" y="534.0513">Different for FAPI2</text><g class="message" data-participant-1="Backend" data-participant-2="Mobile"><polygon fill="#181818" points="171.1724,570.3828,161.1724,574.3828,171.1724,578.3828,167.1724,574.3828" style="stroke:#181818;stroke-width:1;"/><line style="stroke:#181818;stroke-width:1;" x1="165.1724" x2="367.2617" y1="574.3828" y2="574.3828"/><text fill="#000000" font-family="sans-serif" font-size="13" font-weight="bold" lengthAdjust="spacing" textLength="23.0293" x="177.1724" y="561.7505">1.4</text><text fill="#000000" font-family="sans-serif" font-size="13" lengthAdjust="spacing" textLength="125.6138" x="204.2017" y="554.1841">Return request_uri,</text><text fill="#000000" font-family="sans-serif" font-size="13" lengthAdjust="spacing" textLength="131.6758" x="204.2017" y="569.3169">expires_in and state</text></g><path d="M18,594.3828 L18,634.3828 L155,634.3828 L155,604.3828 L145,594.3828 L18,594.3828" fill="#FEFFDD" style="stroke:#181818;stroke-width:0.5;"/><path d="M145,594.3828 L145,604.3828 L155,604.3828 L145,594.3828" fill="#FEFFDD" style="stroke:#181818;stroke-width:0.5;"/><text fill="#000000" font-family="sans-serif" font-size="13" lengthAdjust="spacing" textLength="62.9688" x="24" y="611.4497">Construct</text><text fill="#000000" font-family="sans-serif" font-size="13" lengthAdjust="spacing" textLength="116.0669" x="24" y="626.5825">authorization URL</text><path d="M83,646.6484 L224.6113,646.6484 L224.6113,653.7813 L214.6113,663.7813 L83,663.7813 L83,646.6484" fill="#EEEEEE" style="stroke:#000000;stroke-width:1.5;"/><rect fill="none" height="252.4609" style="stroke:#000000;stroke-width:1.5;" width="749.792" x="83" y="646.6484"/><text fill="#000000" font-family="sans-serif" font-size="13" font-weight="bold" lengthAdjust="spacing" textLength="96.6113" x="98" y="659.7153">Web browser</text><path d="M93,670.7813 L276.4741,670.7813 L276.4741,677.9141 L266.4741,687.9141 L93,687.9141 L93,670.7813" fill="#EEEEEE" style="stroke:#000000;stroke-width:1.5;"/><rect fill="none" height="61.3984" style="stroke:#000000;stroke-width:1.5;" width="639.3848" x="93" y="670.7813"/><text fill="#000000" font-family="sans-serif" font-size="13" font-weight="bold" lengthAdjust="spacing" textLength="138.4741" x="108" y="683.8481">Different for FAPI2</text><g class="message" data-participant-1="Mobile" data-participant-2="Singpass"><polygon fill="#181818" points="622.7686,720.1797,632.7686,724.1797,622.7686,728.1797,626.7686,724.1797" style="stroke:#181818;stroke-width:1;"/><line style="stroke:#181818;stroke-width:1;" x1="160.1724" x2="628.7686" y1="724.1797" y2="724.1797"/><text fill="#000000" font-family="sans-serif" font-size="13" font-weight="bold" lengthAdjust="spacing" textLength="23.0293" x="167.1724" y="711.5474">2.1</text><text fill="#000000" font-family="sans-serif" font-size="13" lengthAdjust="spacing" textLength="183.2568" x="194.2017" y="703.981">Launch authorization URL in</text><text fill="#000000" font-family="sans-serif" font-size="13" lengthAdjust="spacing" textLength="161.5415" x="194.2017" y="719.1138">browser with request_uri</text></g><path d="M639,744.1797 L639,769.1797 L822,769.1797 L822,754.1797 L812,744.1797 L639,744.1797" fill="#FEFFDD" style="stroke:#181818;stroke-width:0.5;"/><path d="M812,744.1797 L812,754.1797 L822,754.1797 L812,744.1797" fill="#FEFFDD" style="stroke:#181818;stroke-width:0.5;"/><text fill="#000000" font-family="sans-serif" font-size="13" lengthAdjust="spacing" textLength="162.792" x="645" y="761.2466">User does Singpass login</text><path d="M639,779.3125 L639,849.3125 L819,849.3125 L819,789.3125 L809,779.3125 L639,779.3125" fill="#FEFFDD" style="stroke:#181818;stroke-width:0.5;"/><path d="M809,779.3125 L809,789.3125 L819,789.3125 L809,779.3125" fill="#FEFFDD" style="stroke:#181818;stroke-width:0.5;"/><text fill="#000000" font-family="sans-serif" font-size="13" lengthAdjust="spacing" textLength="136.9189" x="645" y="796.3794">User clicks on button</text><text fill="#000000" font-family="sans-serif" font-size="13" lengthAdjust="spacing" textLength="159.2056" x="645" y="811.5122">in redirect/consent page</text><text fill="#000000" font-family="sans-serif" font-size="13" lengthAdjust="spacing" textLength="106.0566" x="645" y="826.645">or automatically</text><text fill="#000000" font-family="sans-serif" font-size="13" lengthAdjust="spacing" textLength="99.2964" x="645" y="841.7778">gets redirected</text><g class="message" data-participant-1="Singpass" data-participant-2="Mobile"><polygon fill="#181818" points="171.1724,887.1094,161.1724,891.1094,171.1724,895.1094,167.1724,891.1094" style="stroke:#181818;stroke-width:1;"/><line style="stroke:#181818;stroke-width:1;" x1="165.1724" x2="633.7686" y1="891.1094" y2="891.1094"/><text fill="#000000" font-family="sans-serif" font-size="13" font-weight="bold" lengthAdjust="spacing" textLength="23.0293" x="177.1724" y="878.4771">2.2</text><text fill="#000000" font-family="sans-serif" font-size="13" lengthAdjust="spacing" textLength="176.4839" x="204.2017" y="870.9106">Returns authorization code</text><text fill="#000000" font-family="sans-serif" font-size="13" lengthAdjust="spacing" textLength="61.5215" x="204.2017" y="886.0435">and state</text></g><g class="message" data-participant-1="Mobile" data-participant-2="Backend"><polygon fill="#181818" points="356.2617,923.2422,366.2617,927.2422,356.2617,931.2422,360.2617,927.2422" style="stroke:#181818;stroke-width:1;"/><line style="stroke:#181818;stroke-width:1;" x1="160.1724" x2="362.2617" y1="927.2422" y2="927.2422"/><text fill="#000000" font-family="sans-serif" font-size="13" font-weight="bold" lengthAdjust="spacing" textLength="23.0293" x="167.1724" y="922.1763">3.1</text><text fill="#000000" font-family="sans-serif" font-size="13" lengthAdjust="spacing" textLength="133.8784" x="194.2017" y="922.1763">Send code and state</text></g><path d="M373,940.2422 L373,980.2422 L543,980.2422 L543,950.2422 L533,940.2422 L373,940.2422" fill="#FEFFDD" style="stroke:#181818;stroke-width:0.5;"/><path d="M533,940.2422 L533,950.2422 L543,950.2422 L533,940.2422" fill="#FEFFDD" style="stroke:#181818;stroke-width:0.5;"/><text fill="#000000" font-family="sans-serif" font-size="13" lengthAdjust="spacing" textLength="149.7095" x="379" y="957.3091">Retrieves code_verifier</text><text fill="#000000" font-family="sans-serif" font-size="13" lengthAdjust="spacing" textLength="110.2461" x="379" y="972.4419">for state from db</text><g class="message" data-participant-1="Backend" data-participant-2="Singpass"><polygon fill="#181818" points="622.7686,1002.6406,632.7686,1006.6406,622.7686,1010.6406,626.7686,1006.6406" style="stroke:#181818;stroke-width:1;"/><line style="stroke:#181818;stroke-width:1;" x1="368.2617" x2="628.7686" y1="1006.6406" y2="1006.6406"/><text fill="#000000" font-family="sans-serif" font-size="13" font-weight="bold" lengthAdjust="spacing" textLength="23.0293" x="375.2617" y="1001.5747">3.2</text><text fill="#000000" font-family="sans-serif" font-size="13" lengthAdjust="spacing" textLength="126.9912" x="402.291" y="1001.5747">Call token endpoint</text></g><g class="message" data-participant-1="Singpass" data-participant-2="Backend"><polygon fill="#181818" points="379.2617,1031.7734,369.2617,1035.7734,379.2617,1039.7734,375.2617,1035.7734" style="stroke:#181818;stroke-width:1;"/><line style="stroke:#181818;stroke-width:1;" x1="373.2617" x2="633.7686" y1="1035.7734" y2="1035.7734"/><text fill="#000000" font-family="sans-serif" font-size="13" font-weight="bold" lengthAdjust="spacing" textLength="23.0293" x="385.2617" y="1030.7075">3.3</text><text fill="#000000" font-family="sans-serif" font-size="13" lengthAdjust="spacing" textLength="96.0527" x="412.291" y="1030.7075">Return token/s</text></g><path d="M373,1048.7734 L373,1088.7734 L567,1088.7734 L567,1058.7734 L557,1048.7734 L373,1048.7734" fill="#FEFFDD" style="stroke:#181818;stroke-width:0.5;"/><path d="M557,1048.7734 L557,1058.7734 L567,1058.7734 L557,1048.7734" fill="#FEFFDD" style="stroke:#181818;stroke-width:0.5;"/><text fill="#000000" font-family="sans-serif" font-size="13" lengthAdjust="spacing" textLength="109.6304" x="379" y="1065.8403">Validate token/s,</text><text fill="#000000" font-family="sans-serif" font-size="13" lengthAdjust="spacing" textLength="173.1006" x="379" y="1080.9731">generate RP session token</text><g class="message" data-participant-1="Backend" data-participant-2="Mobile"><polygon fill="#181818" points="171.1724,1141.4375,161.1724,1145.4375,171.1724,1149.4375,167.1724,1145.4375" style="stroke:#181818;stroke-width:1;"/><line style="stroke:#181818;stroke-width:1;" x1="165.1724" x2="367.2617" y1="1145.4375" y2="1145.4375"/><text fill="#000000" font-family="sans-serif" font-size="13" font-weight="bold" lengthAdjust="spacing" textLength="23.0293" x="177.1724" y="1125.2388">3.4</text><text fill="#000000" font-family="sans-serif" font-size="13" lengthAdjust="spacing" textLength="75.6641" x="204.2017" y="1110.106">Return with</text><text fill="#000000" font-family="sans-serif" font-size="13" lengthAdjust="spacing" textLength="110.0747" x="204.2017" y="1125.2388">RP session token</text><text fill="#000000" font-family="sans-serif" font-size="13" lengthAdjust="spacing" textLength="130.3618" x="208.334" y="1140.3716">and other metadata</text></g><!--SRC=[hLGzRzim4DtrAmuPCgKDqj530JT5WW1kQzX8kmWmAEea4PQFB4dPJNzzZvHaMNQKBDr4yJxUlVUENlaQuM6-VFe43xK-GA4jh1MLHZW72rqgIX8Zh5TI6K4UhbPB-AOpnLbpOwv0kEvu4VL5o2rI7aEwxt7CiSsFUUChMAFTeutX_KsIaFO8DHOUTD4rci6pGmkoLdBhG5DA4IOSL2ZIPuh6Qsfs6KVUVRnBEiWVFlTGPh32tmqw7oUsxVUciUec9US5TnMK0scIs8AmggmYYcE1HoIq8LBg73UCNHKABUV7iwn4NIELUF5ZiqDVwVoLHgNLZO7lsCeGLKa0tckFfi8TVzQG6srWYoz6A9lITNlsckDZmULy1Pngj6Bw9QFXubsvm4pFtGpk-MuSVKOI9nxL6tFg6qkdaN0D-CSeYsx3LfeSnedzr20y0EHP4kmpaRmEoVzBXAvTAyLNLHHeiIEW5-I4izwIbuDpvM7mM3us6kOuT_MzPYYsaJubDc-bhVehlD84pwj5SkfdHHBc7S1Vc45czO4tWe6z1HfWs851wOLeI5PmqP2RfDGLRZThh7wO8jGSApBKZIkQQnns6UhucBoRTDnho1hlmtghm6lEJ4f_AvcaC9aH9QR4umLUTWmxsFabPM6zEqPZY_7KgMEztDdWmIBC_aYhI-PVUKlMmGuX-qJe2RDoPwjmpyoC79jI4AlrOc7rBdXmUZVRdUwtCtbh5sFehPk2yrFKAWzDkxYRm67tiF0Zxj2vm4oyJQQD7ooIqdb2sXfV-uh9uuKJt4dy0m00]--></g></svg>