<svg xmlns="http://www.w3.org/2000/svg" xmlns:xlink="http://www.w3.org/1999/xlink" contentStyleType="text/css" data-diagram-type="SEQUENCE" height="941px" preserveAspectRatio="none" style="width:777px;height:941px;background:#FFFFFF;" version="1.1" viewBox="0 0 777 941" width="777px" zoomAndPan="magnify"><title>Legacy Flow for Singpass Login</title><defs/><g><text fill="#000000" font-family="sans-serif" font-size="14" font-weight="bold" lengthAdjust="spacing" textLength="248.6641" x="266.064" y="27.9951">Legacy Flow for Singpass Login</text><rect fill="none" height="251.5938" style="stroke:#000000;stroke-width:1.5;" width="678.792" x="93" y="390.4531"/><g><title>RP Mobile App</title><rect fill="#000000" fill-opacity="0.00000" height="832.7813" width="8" x="156.1724" y="73.5938"/><line style="stroke:#181818;stroke-width:0.5;stroke-dasharray:5,5;" x1="160" x2="160" y1="73.5938" y2="906.375"/></g><g><title>RP Backend</title><rect fill="#000000" fill-opacity="0.00000" height="832.7813" width="8" x="391.7788" y="73.5938"/><line style="stroke:#181818;stroke-width:0.5;stroke-dasharray:5,5;" x1="395.2881" x2="395.2881" y1="73.5938" y2="906.375"/></g><g><title>Singpass OAuth Server</title><rect fill="#000000" fill-opacity="0.00000" height="832.7813" width="8" x="569.7993" y="73.5938"/><line style="stroke:#181818;stroke-width:0.5;stroke-dasharray:5,5;" x1="573.1831" x2="573.1831" y1="73.5938" y2="906.375"/></g><g class="participant participant-head" data-participant="Mobile"><rect fill="#E2E2F0" height="30.2969" rx="2.5" ry="2.5" style="stroke:#181818;stroke-width:0.5;" width="114.3447" x="103" y="42.2969"/><text fill="#000000" font-family="sans-serif" font-size="14" lengthAdjust="spacing" textLength="100.3447" x="110" y="62.292">RP Mobile App</text></g><g class="participant participant-tail" data-participant="Mobile"><rect fill="#E2E2F0" height="30.2969" rx="2.5" ry="2.5" style="stroke:#181818;stroke-width:0.5;" width="114.3447" x="103" y="905.375"/><text fill="#000000" font-family="sans-serif" font-size="14" lengthAdjust="spacing" textLength="100.3447" x="110" y="925.3701">RP Mobile App</text></g><g class="participant participant-head" data-participant="Backend"><rect fill="#E2E2F0" height="30.2969" rx="2.5" ry="2.5" style="stroke:#181818;stroke-width:0.5;" width="96.9814" x="347.2881" y="42.2969"/><text fill="#000000" font-family="sans-serif" font-size="14" lengthAdjust="spacing" textLength="82.9814" x="354.2881" y="62.292">RP Backend</text></g><g class="participant participant-tail" data-participant="Backend"><rect fill="#E2E2F0" height="30.2969" rx="2.5" ry="2.5" style="stroke:#181818;stroke-width:0.5;" width="96.9814" x="347.2881" y="905.375"/><text fill="#000000" font-family="sans-serif" font-size="14" lengthAdjust="spacing" textLength="82.9814" x="354.2881" y="925.3701">RP Backend</text></g><g class="participant participant-head" data-participant="Singpass"><rect fill="#E2E2F0" height="30.2969" rx="2.5" ry="2.5" style="stroke:#181818;stroke-width:0.5;" width="175.2324" x="486.1831" y="42.2969"/><text fill="#000000" font-family="sans-serif" font-size="14" lengthAdjust="spacing" textLength="161.2324" x="493.1831" y="62.292">Singpass OAuth Server</text></g><g class="participant participant-tail" data-participant="Singpass"><rect fill="#E2E2F0" height="30.2969" rx="2.5" ry="2.5" style="stroke:#181818;stroke-width:0.5;" width="175.2324" x="486.1831" y="905.375"/><text fill="#000000" font-family="sans-serif" font-size="14" lengthAdjust="spacing" textLength="161.2324" x="493.1831" y="925.3701">Singpass OAuth Server</text></g><path d="M5,88.5938 L5,128.5938 L155,128.5938 L155,98.5938 L145,88.5938 L5,88.5938" fill="#FEFFDD" style="stroke:#181818;stroke-width:0.5;"/><path d="M145,88.5938 L145,98.5938 L155,98.5938 L145,88.5938" fill="#FEFFDD" style="stroke:#181818;stroke-width:0.5;"/><text fill="#000000" font-family="sans-serif" font-size="13" lengthAdjust="spacing" textLength="89.9082" x="11" y="105.6606">User clicks on</text><text fill="#000000" font-family="sans-serif" font-size="13" lengthAdjust="spacing" textLength="129.2637" x="11" y="120.7935">Login with Singpass</text><g class="message" data-participant-1="Mobile" data-participant-2="Backend"><polygon fill="#181818" points="383.7788,181.2578,393.7788,185.2578,383.7788,189.2578,387.7788,185.2578" style="stroke:#181818;stroke-width:1;"/><line style="stroke:#181818;stroke-width:1;" x1="160.1724" x2="389.7788" y1="185.2578" y2="185.2578"/><text fill="#000000" font-family="sans-serif" font-size="13" font-weight="bold" lengthAdjust="spacing" textLength="23.0293" x="167.1724" y="165.0591">1.1</text><text fill="#000000" font-family="sans-serif" font-size="13" lengthAdjust="spacing" textLength="184.5771" x="194.2017" y="149.9263">Request for code_challenge,</text><text fill="#000000" font-family="sans-serif" font-size="13" lengthAdjust="spacing" textLength="161.751" x="194.2017" y="165.0591">code_challenge_method,</text><text fill="#000000" font-family="sans-serif" font-size="13" lengthAdjust="spacing" textLength="105.2314" x="194.2017" y="180.1919">nonce and state</text></g><path d="M400,198.2578 L400,268.2578 L582,268.2578 L582,208.2578 L572,198.2578 L400,198.2578" fill="#FEFFDD" style="stroke:#181818;stroke-width:0.5;"/><path d="M572,198.2578 L572,208.2578 L582,208.2578 L572,198.2578" fill="#FEFFDD" style="stroke:#181818;stroke-width:0.5;"/><text fill="#000000" font-family="sans-serif" font-size="13" lengthAdjust="spacing" textLength="153.0103" x="406" y="215.3247">Generate code_verifier,</text><text fill="#000000" font-family="sans-serif" font-size="13" lengthAdjust="spacing" textLength="105.0474" x="406" y="230.4575">code_challenge,</text><text fill="#000000" font-family="sans-serif" font-size="13" lengthAdjust="spacing" textLength="161.751" x="406" y="245.5903">code_challenge_method,</text><text fill="#000000" font-family="sans-serif" font-size="13" lengthAdjust="spacing" textLength="105.2314" x="406" y="260.7231">state and nonce</text><g class="message" data-participant-1="Backend" data-participant-2="Mobile"><polygon fill="#181818" points="171.1724,321.1875,161.1724,325.1875,171.1724,329.1875,167.1724,325.1875" style="stroke:#181818;stroke-width:1;"/><line style="stroke:#181818;stroke-width:1;" x1="165.1724" x2="394.7788" y1="325.1875" y2="325.1875"/><text fill="#000000" font-family="sans-serif" font-size="13" font-weight="bold" lengthAdjust="spacing" textLength="23.0293" x="177.1724" y="304.9888">1.2</text><text fill="#000000" font-family="sans-serif" font-size="13" lengthAdjust="spacing" textLength="153.1309" x="204.2017" y="289.856">Return code_challenge,</text><text fill="#000000" font-family="sans-serif" font-size="13" lengthAdjust="spacing" textLength="161.751" x="204.2017" y="304.9888">code_challenge_method,</text><text fill="#000000" font-family="sans-serif" font-size="13" lengthAdjust="spacing" textLength="105.2314" x="204.2017" y="320.1216">state and nonce</text></g><path d="M18,338.1875 L18,378.1875 L155,378.1875 L155,348.1875 L145,338.1875 L18,338.1875" fill="#FEFFDD" style="stroke:#181818;stroke-width:0.5;"/><path d="M145,338.1875 L145,348.1875 L155,348.1875 L145,338.1875" fill="#FEFFDD" style="stroke:#181818;stroke-width:0.5;"/><text fill="#000000" font-family="sans-serif" font-size="13" lengthAdjust="spacing" textLength="62.9688" x="24" y="355.2544">Construct</text><text fill="#000000" font-family="sans-serif" font-size="13" lengthAdjust="spacing" textLength="116.0669" x="24" y="370.3872">authorization URL</text><path d="M93,390.4531 L234.6113,390.4531 L234.6113,397.5859 L224.6113,407.5859 L93,407.5859 L93,390.4531" fill="#EEEEEE" style="stroke:#000000;stroke-width:1.5;"/><rect fill="none" height="251.5938" style="stroke:#000000;stroke-width:1.5;" width="678.792" x="93" y="390.4531"/><text fill="#000000" font-family="sans-serif" font-size="13" font-weight="bold" lengthAdjust="spacing" textLength="96.6113" x="108" y="403.52">Web browser</text><g class="message" data-participant-1="Mobile" data-participant-2="Singpass"><polygon fill="#181818" points="561.7993,470.1172,571.7993,474.1172,561.7993,478.1172,565.7993,474.1172" style="stroke:#181818;stroke-width:1;"/><line style="stroke:#181818;stroke-width:1;" x1="160.1724" x2="567.7993" y1="474.1172" y2="474.1172"/><text fill="#000000" font-family="sans-serif" font-size="13" font-weight="bold" lengthAdjust="spacing" textLength="23.0293" x="167.1724" y="446.3521">2.1</text><text fill="#000000" font-family="sans-serif" font-size="13" lengthAdjust="spacing" textLength="183.2568" x="194.2017" y="423.6528">Launch authorization URL in</text><text fill="#000000" font-family="sans-serif" font-size="13" lengthAdjust="spacing" textLength="193.1909" x="194.2017" y="438.7856">browser with code_challenge,</text><text fill="#000000" font-family="sans-serif" font-size="13" lengthAdjust="spacing" textLength="161.751" x="194.2017" y="453.9185">code_challenge_method,</text><text fill="#000000" font-family="sans-serif" font-size="13" lengthAdjust="spacing" textLength="105.2314" x="194.2017" y="469.0513">state and nonce</text></g><path d="M578,487.1172 L578,512.1172 L761,512.1172 L761,497.1172 L751,487.1172 L578,487.1172" fill="#FEFFDD" style="stroke:#181818;stroke-width:0.5;"/><path d="M751,487.1172 L751,497.1172 L761,497.1172 L751,487.1172" fill="#FEFFDD" style="stroke:#181818;stroke-width:0.5;"/><text fill="#000000" font-family="sans-serif" font-size="13" lengthAdjust="spacing" textLength="162.792" x="584" y="504.1841">User does Singpass login</text><path d="M578,522.25 L578,592.25 L758,592.25 L758,532.25 L748,522.25 L578,522.25" fill="#FEFFDD" style="stroke:#181818;stroke-width:0.5;"/><path d="M748,522.25 L748,532.25 L758,532.25 L748,522.25" fill="#FEFFDD" style="stroke:#181818;stroke-width:0.5;"/><text fill="#000000" font-family="sans-serif" font-size="13" lengthAdjust="spacing" textLength="136.9189" x="584" y="539.3169">User clicks on button</text><text fill="#000000" font-family="sans-serif" font-size="13" lengthAdjust="spacing" textLength="159.2056" x="584" y="554.4497">in redirect/consent page</text><text fill="#000000" font-family="sans-serif" font-size="13" lengthAdjust="spacing" textLength="106.0566" x="584" y="569.5825">or automatically</text><text fill="#000000" font-family="sans-serif" font-size="13" lengthAdjust="spacing" textLength="99.2964" x="584" y="584.7153">gets redirected</text><g class="message" data-participant-1="Singpass" data-participant-2="Mobile"><polygon fill="#181818" points="171.1724,630.0469,161.1724,634.0469,171.1724,638.0469,167.1724,634.0469" style="stroke:#181818;stroke-width:1;"/><line style="stroke:#181818;stroke-width:1;" x1="165.1724" x2="572.7993" y1="634.0469" y2="634.0469"/><text fill="#000000" font-family="sans-serif" font-size="13" font-weight="bold" lengthAdjust="spacing" textLength="23.0293" x="177.1724" y="621.4146">2.2</text><text fill="#000000" font-family="sans-serif" font-size="13" lengthAdjust="spacing" textLength="176.4839" x="204.2017" y="613.8481">Returns authorization code</text><text fill="#000000" font-family="sans-serif" font-size="13" lengthAdjust="spacing" textLength="61.5215" x="204.2017" y="628.981">and state</text></g><g class="message" data-participant-1="Mobile" data-participant-2="Backend"><polygon fill="#181818" points="383.7788,666.1797,393.7788,670.1797,383.7788,674.1797,387.7788,670.1797" style="stroke:#181818;stroke-width:1;"/><line style="stroke:#181818;stroke-width:1;" x1="160.1724" x2="389.7788" y1="670.1797" y2="670.1797"/><text fill="#000000" font-family="sans-serif" font-size="13" font-weight="bold" lengthAdjust="spacing" textLength="23.0293" x="167.1724" y="665.1138">3.1</text><text fill="#000000" font-family="sans-serif" font-size="13" lengthAdjust="spacing" textLength="133.8784" x="194.2017" y="665.1138">Send code and state</text></g><path d="M400,683.1797 L400,723.1797 L570,723.1797 L570,693.1797 L560,683.1797 L400,683.1797" fill="#FEFFDD" style="stroke:#181818;stroke-width:0.5;"/><path d="M560,683.1797 L560,693.1797 L570,693.1797 L560,683.1797" fill="#FEFFDD" style="stroke:#181818;stroke-width:0.5;"/><text fill="#000000" font-family="sans-serif" font-size="13" lengthAdjust="spacing" textLength="149.7095" x="406" y="700.2466">Retrieves code_verifier</text><text fill="#000000" font-family="sans-serif" font-size="13" lengthAdjust="spacing" textLength="110.2461" x="406" y="715.3794">for state from db</text><g class="message" data-participant-1="Backend" data-participant-2="Singpass"><polygon fill="#181818" points="561.7993,745.5781,571.7993,749.5781,561.7993,753.5781,565.7993,749.5781" style="stroke:#181818;stroke-width:1;"/><line style="stroke:#181818;stroke-width:1;" x1="395.7788" x2="567.7993" y1="749.5781" y2="749.5781"/><text fill="#000000" font-family="sans-serif" font-size="13" font-weight="bold" lengthAdjust="spacing" textLength="23.0293" x="402.7788" y="744.5122">3.2</text><text fill="#000000" font-family="sans-serif" font-size="13" lengthAdjust="spacing" textLength="126.9912" x="429.8081" y="744.5122">Call token endpoint</text></g><g class="message" data-participant-1="Singpass" data-participant-2="Backend"><polygon fill="#181818" points="406.7788,774.7109,396.7788,778.7109,406.7788,782.7109,402.7788,778.7109" style="stroke:#181818;stroke-width:1;"/><line style="stroke:#181818;stroke-width:1;" x1="400.7788" x2="572.7993" y1="778.7109" y2="778.7109"/><text fill="#000000" font-family="sans-serif" font-size="13" font-weight="bold" lengthAdjust="spacing" textLength="23.0293" x="412.7788" y="773.645">3.3</text><text fill="#000000" font-family="sans-serif" font-size="13" lengthAdjust="spacing" textLength="96.0527" x="439.8081" y="773.645">Return token/s</text></g><path d="M400,791.7109 L400,831.7109 L594,831.7109 L594,801.7109 L584,791.7109 L400,791.7109" fill="#FEFFDD" style="stroke:#181818;stroke-width:0.5;"/><path d="M584,791.7109 L584,801.7109 L594,801.7109 L584,791.7109" fill="#FEFFDD" style="stroke:#181818;stroke-width:0.5;"/><text fill="#000000" font-family="sans-serif" font-size="13" lengthAdjust="spacing" textLength="109.6304" x="406" y="808.7778">Validate token/s,</text><text fill="#000000" font-family="sans-serif" font-size="13" lengthAdjust="spacing" textLength="173.1006" x="406" y="823.9106">generate RP session token</text><g class="message" data-participant-1="Backend" data-participant-2="Mobile"><polygon fill="#181818" points="171.1724,884.375,161.1724,888.375,171.1724,892.375,167.1724,888.375" style="stroke:#181818;stroke-width:1;"/><line style="stroke:#181818;stroke-width:1;" x1="165.1724" x2="394.7788" y1="888.375" y2="888.375"/><text fill="#000000" font-family="sans-serif" font-size="13" font-weight="bold" lengthAdjust="spacing" textLength="23.0293" x="177.1724" y="868.1763">3.4</text><text fill="#000000" font-family="sans-serif" font-size="13" lengthAdjust="spacing" textLength="75.6641" x="204.2017" y="853.0435">Return with</text><text fill="#000000" font-family="sans-serif" font-size="13" lengthAdjust="spacing" textLength="110.0747" x="204.2017" y="868.1763">RP session token</text><text fill="#000000" font-family="sans-serif" font-size="13" lengthAdjust="spacing" textLength="130.3618" x="208.334" y="883.3091">and other metadata</text></g><!--SRC=[dLHDRzim3BthLn0zTojwpM50Lc2xP5YHeDl5G27Bj2tK8Ls9Rj3z-b6AxIHDFu3wP8laU-JZayLBXx32nhfd-D7n3ceEiF7Kz3P6M77ZoPZU1l7EzvO4BjQty8jBhsNBlhy06yVFiwplrZqWLJbbV3_DcMb-BmTfOOFX2KDEdoB640j2XxK0roFH0kuY1d2TTmyHc0hARSBE9v2fqWx2D6nBpRp-Uct6bhzycrfPm1eV1uoI9tPSuRrhRTSXDNXPqEd1_HQbvKhFYSaXMAeWYXNSznTyq-O6P-oVI1WqlWVMiNpjCPpXlaEKuJDHfZGZT9fWac6DCWI2JqE-gkqDQruOd1Ia4hOS_3yhdWdkrYjphAed1qlJ11vw-8ibb85tkXS3-XpKdlQnW9KToBLm1gf01Ot5-nr-Ug14VRgG0ttsJCLuC1TqsTqV5ir6Wt8GINvJimMiV40dLqxrGdLpRniiIAsK9DhgT4xRVIwqNubpDbQPRkxWR9dnXJvfSbt4RBTqXywNy8gvDyahgVfZhofpyFYaofoOjQ1qCVOIru6tK9N79Zo8TAE3Wh06G6CzUn9pFE4nKV9hJhsARxNpntQ-IgHZtcNISBnD-bU966DI9aVVkHN9IGMzB2Wewy7IgdZg8wjCzZy0]--></g></svg>